<svg width="605" height="472" viewBox="0 0 605 472" fill="none" xmlns="http://www.w3.org/2000/svg">
<g clip-path="url(#clip0_214_137)">
<path d="M503.098 203.556C503.098 203.556 488.874 211.469 492.969 220.479C497.063 229.489 555.203 222.117 555.203 222.117C555.203 222.117 551.109 209.831 543.739 207.374C536.369 204.917 503.098 203.556 503.098 203.556Z" fill="#38E078" fill-opacity="0.6"/>
<path d="M497.554 205.666C500.413 203.808 503.59 202.493 506.927 201.789C518.056 199.092 529.707 199.455 540.646 202.841L540.445 202.678C545.106 205.139 549.197 208.551 552.455 212.694L497.554 205.666Z" fill="#8C8989"/>
<path d="M560.542 244.412C560.346 247.352 560.149 250.29 559.953 253.225C559.683 259.372 559.013 265.496 557.946 271.556C556.947 276.626 555.359 281.655 552.517 285.971C549.676 290.279 545.459 293.842 540.463 295.153C537.397 295.888 534.208 295.958 531.112 295.358C525.273 292.04 521.318 296.283 527.149 300.6C528.471 301.578 529.846 302.483 531.267 303.311L533.912 344.157L484.78 333.509L494.369 279.173C492.9 277.838 491.557 276.371 490.357 274.791C484.862 267.493 482.97 257.984 483.331 248.86C483.699 239.727 486.131 230.824 488.547 222.019C489.163 219.63 489.906 217.276 490.774 214.967C491.847 215.409 492.936 215.81 494.042 216.146C501.108 218.292 508.617 218.464 516.004 218.456C529.147 218.448 542.273 217.935 555.383 216.916C558.396 221.877 560.226 227.466 560.731 233.248C560.942 236.969 560.879 240.7 560.542 244.412Z" fill="#8C8989"/>
<path d="M350.404 355.292L426.044 362.008L426.854 362.082V39.2577C426.584 39.0693 426.314 38.8809 426.044 38.6925C410.28 27.6636 393.227 18.6031 375.265 11.7126L371.4 65.0335L371.048 69.9151L367.224 122.794L366.045 139.06L350.543 353.408L350.404 355.292Z" fill="#B5B5B5"/>
<path d="M163.349 33.2457C162.808 33.5897 162.268 33.9337 161.728 34.2941V362.082L163.349 361.935L238.169 355.292L238.03 353.408L222.529 139.06L221.35 122.794L217.526 69.9151L217.173 65.0335L213.12 9.11621C195.64 15.1767 178.934 23.2757 163.349 33.2457Z" fill="#B5B5B5"/>
<path d="M161.727 34.294C160.638 34.9984 159.549 35.7192 158.477 36.4481V366.554C158.477 374.802 163.365 381.715 169.9 383.476C170.968 383.765 172.069 383.911 173.175 383.91H416.217C417.321 383.912 418.419 383.766 419.484 383.476C421.913 382.802 424.115 381.483 425.855 379.659C429.174 376.111 430.988 371.413 430.916 366.554V42.1897C429.573 41.1987 428.222 40.2158 426.854 39.2575C426.584 39.0691 426.314 38.8807 426.043 38.6924V366.554C426.045 367.617 425.919 368.675 425.667 369.707C424.512 374.581 420.704 378.152 416.217 378.152H173.175C167.754 378.152 163.349 372.951 163.349 366.554V33.2456C162.808 33.5896 162.268 33.9336 161.727 34.294Z" fill="#B5B5B5"/>
<path d="M428.479 65.0366H160.911V69.9174H428.479V65.0366Z" fill="#B5B5B5"/>
<path d="M346.531 2.77655C344.91 2.37521 343.288 1.99844 341.65 1.64624V134.178H346.531V2.77655Z" fill="#B5B5B5"/>
<path d="M247.742 0C246.112 0.303052 244.483 0.614286 242.861 0.950101V134.178H247.742V0Z" fill="#B5B5B5"/>
<path d="M108.452 375.367C108.451 378.168 108.987 380.943 110.032 383.541C110.433 384.549 110.913 385.524 111.465 386.457C112.179 387.675 113.007 388.821 113.938 389.881C115.995 392.226 118.529 394.104 121.37 395.391C124.212 396.678 127.295 397.343 130.414 397.343H450.847C456.672 397.343 462.258 395.028 466.377 390.909C470.496 386.789 472.809 381.201 472.809 375.375C472.809 369.549 470.496 363.962 466.377 359.842C462.258 355.723 456.672 353.408 450.847 353.408H130.414C124.592 353.414 119.011 355.729 114.893 359.846C110.776 363.962 108.46 369.544 108.452 375.367Z" fill="#B5B5B5"/>
<path d="M160.911 139.062L426.853 139.062V122.793L160.911 122.793V139.062Z" fill="#B5B5B5"/>
<path d="M305.268 126.86H282.496C282.496 125.685 282.727 124.521 283.177 123.436C283.626 122.35 284.285 121.364 285.116 120.533C285.947 119.702 286.933 119.043 288.018 118.593C289.104 118.143 290.267 117.912 291.442 117.912H296.321C298.694 117.912 300.97 118.855 302.647 120.533C304.325 122.211 305.268 124.487 305.268 126.86Z" fill="#B5B5B5"/>
<path d="M0 387.915C7.11376 396.346 14.8081 404.27 23.0267 411.627H581.973C590.192 404.27 597.886 396.346 605 387.915H0Z" fill="#333337"/>
<path d="M151.623 308.622V392.625H210.459V308.622C210.46 308.018 210.267 307.429 209.909 306.943C209.551 306.456 209.046 306.097 208.469 305.919C208.197 305.829 207.912 305.785 207.625 305.788H154.464C154.091 305.787 153.722 305.86 153.378 306.002C153.033 306.144 152.72 306.353 152.456 306.616C152.192 306.879 151.983 307.192 151.84 307.536C151.697 307.88 151.623 308.249 151.623 308.622ZM174.584 337.486C174.599 335.83 175.268 334.247 176.444 333.081C177.62 331.915 179.209 331.261 180.865 331.261C182.52 331.261 184.109 331.915 185.285 333.081C186.461 334.247 187.13 335.83 187.145 337.486V347.232C187.137 348.893 186.471 350.483 185.294 351.654C184.117 352.825 182.525 353.483 180.865 353.483C179.204 353.483 177.612 352.825 176.435 351.654C175.258 350.483 174.592 348.893 174.584 347.232V337.486Z" fill="#282828"/>
<path d="M151.442 389.938V398.039C151.444 398.458 151.61 398.86 151.906 399.158C152.202 399.455 152.603 399.624 153.023 399.628H209.058C209.478 399.626 209.88 399.457 210.176 399.16C210.473 398.862 210.639 398.459 210.639 398.039V389.938H151.442Z" fill="#333337"/>
<path d="M59.0654 182.061V335.438C59.067 337.393 59.8439 339.267 61.2257 340.649C62.6075 342.031 64.4812 342.808 66.4353 342.81H293.673C295.627 342.808 297.5 342.031 298.882 340.649C300.264 339.267 301.041 337.393 301.042 335.438V182.061C301.038 180.108 300.26 178.237 298.878 176.856C297.497 175.476 295.625 174.7 293.673 174.698H66.4353C64.4829 174.7 62.611 175.476 61.2296 176.856C59.8483 178.237 59.0701 180.108 59.0654 182.061Z" fill="#333337"/>
<path d="M64.396 183.969V333.546C64.3978 334.59 64.8133 335.591 65.5516 336.33C66.2899 337.068 67.2907 337.484 68.3348 337.486H291.781C292.825 337.484 293.826 337.068 294.564 336.33C295.302 335.591 295.718 334.59 295.72 333.546V183.969C295.719 182.924 295.305 181.921 294.566 181.181C293.828 180.44 292.826 180.024 291.781 180.021H68.3348C67.2894 180.024 66.2877 180.44 65.5493 181.181C64.8109 181.921 64.3961 182.924 64.396 183.969Z" fill="#38E078" fill-opacity="0.6"/>
<path d="M109.958 401.536C110.186 401.821 110.475 402.051 110.804 402.209C111.133 402.366 111.493 402.447 111.858 402.445H244.794C245.157 402.445 245.516 402.363 245.844 402.207C246.173 402.05 246.462 401.822 246.691 401.54C246.92 401.258 247.083 400.928 247.168 400.574C247.254 400.221 247.26 399.853 247.185 399.497L245.121 389.693C245.036 389.293 244.852 388.921 244.586 388.61C244.32 388.3 243.98 388.061 243.598 387.915C243.322 387.807 243.027 387.751 242.73 387.751H113.913C113.616 387.751 113.322 387.807 113.045 387.915C112.663 388.061 112.324 388.3 112.058 388.61C111.792 388.921 111.608 389.293 111.522 389.693L109.459 399.497C109.385 399.852 109.392 400.22 109.478 400.573C109.565 400.926 109.729 401.255 109.958 401.536Z" fill="#282828"/>
<path d="M238.092 391.974H241.386C241.607 391.974 241.786 391.795 241.786 391.575V389.917C241.786 389.696 241.607 389.517 241.386 389.517H238.092C237.871 389.517 237.692 389.696 237.692 389.917V391.575C237.692 391.795 237.871 391.974 238.092 391.974Z" fill="#333337"/>
<path d="M229.903 391.974H233.198C233.419 391.974 233.598 391.795 233.598 391.575V389.917C233.598 389.696 233.419 389.517 233.198 389.517H229.903C229.682 389.517 229.503 389.696 229.503 389.917V391.575C229.503 391.795 229.682 391.974 229.903 391.974Z" fill="#333337"/>
<path d="M221.714 391.974H225.009C225.23 391.974 225.409 391.795 225.409 391.575V389.917C225.409 389.696 225.23 389.517 225.009 389.517H221.714C221.493 389.517 221.314 389.696 221.314 389.917V391.575C221.314 391.795 221.493 391.974 221.714 391.974Z" fill="#333337"/>
<path d="M213.526 391.974H216.82C217.041 391.974 217.22 391.795 217.22 391.575V389.917C217.22 389.696 217.041 389.517 216.82 389.517H213.526C213.305 389.517 213.126 389.696 213.126 389.917V391.575C213.126 391.795 213.305 391.974 213.526 391.974Z" fill="#333337"/>
<path d="M205.337 391.974H208.631C208.852 391.974 209.031 391.795 209.031 391.575V389.917C209.031 389.696 208.852 389.517 208.631 389.517H205.337C205.116 389.517 204.937 389.696 204.937 389.917V391.575C204.937 391.795 205.116 391.974 205.337 391.974Z" fill="#333337"/>
<path d="M197.148 391.974H200.443C200.664 391.974 200.843 391.795 200.843 391.575V389.917C200.843 389.696 200.664 389.517 200.443 389.517H197.148C196.927 389.517 196.748 389.696 196.748 389.917V391.575C196.748 391.795 196.927 391.974 197.148 391.974Z" fill="#333337"/>
<path d="M188.959 391.974H192.254C192.475 391.974 192.654 391.795 192.654 391.575V389.917C192.654 389.696 192.475 389.517 192.254 389.517H188.959C188.738 389.517 188.559 389.696 188.559 389.917V391.575C188.559 391.795 188.738 391.974 188.959 391.974Z" fill="#333337"/>
<path d="M180.771 391.974H184.066C184.286 391.974 184.465 391.795 184.465 391.575V389.917C184.465 389.696 184.286 389.517 184.066 389.517H180.771C180.55 389.517 180.371 389.696 180.371 389.917V391.575C180.371 391.795 180.55 391.974 180.771 391.974Z" fill="#333337"/>
<path d="M172.582 391.974H175.877C176.097 391.974 176.276 391.795 176.276 391.575V389.917C176.276 389.696 176.097 389.517 175.877 389.517H172.582C172.361 389.517 172.182 389.696 172.182 389.917V391.575C172.182 391.795 172.361 391.974 172.582 391.974Z" fill="#333337"/>
<path d="M164.393 391.974H167.688C167.909 391.974 168.088 391.795 168.088 391.575V389.917C168.088 389.696 167.909 389.517 167.688 389.517H164.393C164.173 389.517 163.994 389.696 163.994 389.917V391.575C163.994 391.795 164.173 391.974 164.393 391.974Z" fill="#333337"/>
<path d="M156.204 391.974H159.499C159.72 391.974 159.899 391.795 159.899 391.575V389.917C159.899 389.696 159.72 389.517 159.499 389.517H156.204C155.984 389.517 155.805 389.696 155.805 389.917V391.575C155.805 391.795 155.984 391.974 156.204 391.974Z" fill="#333337"/>
<path d="M148.015 391.974H151.31C151.531 391.974 151.71 391.795 151.71 391.575V389.917C151.71 389.696 151.531 389.517 151.31 389.517H148.015C147.795 389.517 147.616 389.696 147.616 389.917V391.575C147.616 391.795 147.795 391.974 148.015 391.974Z" fill="#333337"/>
<path d="M139.827 391.974H143.122C143.343 391.974 143.521 391.795 143.521 391.575V389.917C143.521 389.696 143.343 389.517 143.122 389.517H139.827C139.606 389.517 139.427 389.696 139.427 389.917V391.575C139.427 391.795 139.606 391.974 139.827 391.974Z" fill="#333337"/>
<path d="M131.638 391.974H134.933C135.154 391.974 135.333 391.795 135.333 391.575V389.917C135.333 389.696 135.154 389.517 134.933 389.517H131.638C131.417 389.517 131.238 389.696 131.238 389.917V391.575C131.238 391.795 131.417 391.974 131.638 391.974Z" fill="#333337"/>
<path d="M123.449 391.974H126.744C126.965 391.974 127.144 391.795 127.144 391.575V389.917C127.144 389.696 126.965 389.517 126.744 389.517H123.449C123.229 389.517 123.05 389.696 123.05 389.917V391.575C123.05 391.795 123.229 391.974 123.449 391.974Z" fill="#333337"/>
<path d="M115.26 391.974H118.555C118.776 391.974 118.955 391.795 118.955 391.575V389.917C118.955 389.696 118.776 389.517 118.555 389.517H115.26C115.04 389.517 114.861 389.696 114.861 389.917V391.575C114.861 391.795 115.04 391.974 115.26 391.974Z" fill="#333337"/>
<path d="M238.188 396.07H241.483C241.704 396.07 241.883 395.891 241.883 395.67V394.012C241.883 393.791 241.704 393.612 241.483 393.612H238.188C237.967 393.612 237.788 393.791 237.788 394.012V395.67C237.788 395.891 237.967 396.07 238.188 396.07Z" fill="#333337"/>
<path d="M230 396.07H233.295C233.515 396.07 233.694 395.891 233.694 395.67V394.012C233.694 393.791 233.515 393.612 233.295 393.612H230C229.779 393.612 229.6 393.791 229.6 394.012V395.67C229.6 395.891 229.779 396.07 230 396.07Z" fill="#333337"/>
<path d="M221.811 396.07H225.106C225.326 396.07 225.505 395.891 225.505 395.67V394.012C225.505 393.791 225.326 393.612 225.106 393.612H221.811C221.59 393.612 221.411 393.791 221.411 394.012V395.67C221.411 395.891 221.59 396.07 221.811 396.07Z" fill="#333337"/>
<path d="M213.622 396.07H216.917C217.138 396.07 217.317 395.891 217.317 395.67V394.012C217.317 393.791 217.138 393.612 216.917 393.612H213.622C213.402 393.612 213.223 393.791 213.223 394.012V395.67C213.223 395.891 213.402 396.07 213.622 396.07Z" fill="#333337"/>
<path d="M205.433 396.07H208.728C208.949 396.07 209.128 395.891 209.128 395.67V394.012C209.128 393.791 208.949 393.612 208.728 393.612H205.433C205.213 393.612 205.034 393.791 205.034 394.012V395.67C205.034 395.891 205.213 396.07 205.433 396.07Z" fill="#333337"/>
<path d="M197.245 396.07H200.54C200.76 396.07 200.939 395.891 200.939 395.67V394.012C200.939 393.791 200.76 393.612 200.54 393.612H197.245C197.024 393.612 196.845 393.791 196.845 394.012V395.67C196.845 395.891 197.024 396.07 197.245 396.07Z" fill="#333337"/>
<path d="M189.056 396.07H192.351C192.572 396.07 192.75 395.891 192.75 395.67V394.012C192.75 393.791 192.572 393.612 192.351 393.612H189.056C188.835 393.612 188.656 393.791 188.656 394.012V395.67C188.656 395.891 188.835 396.07 189.056 396.07Z" fill="#333337"/>
<path d="M180.867 396.07H184.162C184.383 396.07 184.562 395.891 184.562 395.67V394.012C184.562 393.791 184.383 393.612 184.162 393.612H180.867C180.647 393.612 180.468 393.791 180.468 394.012V395.67C180.468 395.891 180.647 396.07 180.867 396.07Z" fill="#333337"/>
<path d="M172.678 396.07H175.973C176.194 396.07 176.373 395.891 176.373 395.67V394.012C176.373 393.791 176.194 393.612 175.973 393.612H172.678C172.458 393.612 172.279 393.791 172.279 394.012V395.67C172.279 395.891 172.458 396.07 172.678 396.07Z" fill="#333337"/>
<path d="M164.49 396.07H167.785C168.006 396.07 168.185 395.891 168.185 395.67V394.012C168.185 393.791 168.006 393.612 167.785 393.612H164.49C164.269 393.612 164.09 393.791 164.09 394.012V395.67C164.09 395.891 164.269 396.07 164.49 396.07Z" fill="#333337"/>
<path d="M156.301 396.07H159.596C159.817 396.07 159.996 395.891 159.996 395.67V394.012C159.996 393.791 159.817 393.612 159.596 393.612H156.301C156.08 393.612 155.901 393.791 155.901 394.012V395.67C155.901 395.891 156.08 396.07 156.301 396.07Z" fill="#333337"/>
<path d="M148.113 396.07H151.407C151.628 396.07 151.807 395.891 151.807 395.67V394.012C151.807 393.791 151.628 393.612 151.407 393.612H148.113C147.892 393.612 147.713 393.791 147.713 394.012V395.67C147.713 395.891 147.892 396.07 148.113 396.07Z" fill="#333337"/>
<path d="M139.924 396.07H143.218C143.439 396.07 143.618 395.891 143.618 395.67V394.012C143.618 393.791 143.439 393.612 143.218 393.612H139.924C139.703 393.612 139.524 393.791 139.524 394.012V395.67C139.524 395.891 139.703 396.07 139.924 396.07Z" fill="#333337"/>
<path d="M131.735 396.07H135.03C135.251 396.07 135.43 395.891 135.43 395.67V394.012C135.43 393.791 135.251 393.612 135.03 393.612H131.735C131.514 393.612 131.335 393.791 131.335 394.012V395.67C131.335 395.891 131.514 396.07 131.735 396.07Z" fill="#333337"/>
<path d="M123.546 396.07H126.841C127.062 396.07 127.241 395.891 127.241 395.67V394.012C127.241 393.791 127.062 393.612 126.841 393.612H123.546C123.325 393.612 123.146 393.791 123.146 394.012V395.67C123.146 395.891 123.325 396.07 123.546 396.07Z" fill="#333337"/>
<path d="M115.358 396.07H118.652C118.873 396.07 119.052 395.891 119.052 395.67V394.012C119.052 393.791 118.873 393.612 118.652 393.612H115.358C115.137 393.612 114.958 393.791 114.958 394.012V395.67C114.958 395.891 115.137 396.07 115.358 396.07Z" fill="#333337"/>
<path d="M170.222 400.984H202.177C202.398 400.984 202.577 400.805 202.577 400.584V398.927C202.577 398.706 202.398 398.527 202.177 398.527H170.222C170.001 398.527 169.822 398.706 169.822 398.927V400.584C169.822 400.805 170.001 400.984 170.222 400.984Z" fill="#333337"/>
<path d="M79.5634 200.626H288.641C288.858 200.621 289.065 200.532 289.217 200.376C289.369 200.221 289.454 200.012 289.454 199.795C289.454 199.577 289.369 199.368 289.217 199.213C289.065 199.057 288.858 198.968 288.641 198.963H79.5634C79.346 198.968 79.1392 199.057 78.9872 199.213C78.8351 199.368 78.75 199.577 78.75 199.795C78.75 200.012 78.8351 200.221 78.9872 200.376C79.1392 200.532 79.346 200.621 79.5634 200.626Z" fill="#333337"/>
<path d="M274.409 194.717C277.1 194.717 279.281 192.486 279.281 189.734C279.281 186.983 277.1 184.752 274.409 184.752C271.718 184.752 269.536 186.983 269.536 189.734C269.536 192.486 271.718 194.717 274.409 194.717Z" fill="#333337"/>
<path d="M257.576 194.717C260.267 194.717 262.448 192.486 262.448 189.734C262.448 186.983 260.267 184.752 257.576 184.752C254.885 184.752 252.703 186.983 252.703 189.734C252.703 192.486 254.885 194.717 257.576 194.717Z" fill="#333337"/>
<path d="M240.743 194.717C243.434 194.717 245.616 192.486 245.616 189.734C245.616 186.983 243.434 184.752 240.743 184.752C238.052 184.752 235.871 186.983 235.871 189.734C235.871 192.486 238.052 194.717 240.743 194.717Z" fill="#333337"/>
<path d="M88.8067 186.893C88.8061 187.011 88.8287 187.128 88.8733 187.237C88.9178 187.346 88.9834 187.445 89.0663 187.529C89.1492 187.612 89.2478 187.679 89.3564 187.724C89.465 187.77 89.5815 187.794 89.6992 187.794H101.655C101.891 187.789 102.116 187.691 102.281 187.522C102.446 187.353 102.539 187.126 102.539 186.889C102.539 186.653 102.446 186.426 102.281 186.257C102.116 186.087 101.891 185.99 101.655 185.984H89.6992C89.4606 185.987 89.2327 186.084 89.0655 186.255C88.8983 186.425 88.8052 186.655 88.8067 186.893Z" fill="#333337"/>
<path d="M88.8067 190.292C88.8061 190.41 88.8287 190.527 88.8733 190.636C88.9178 190.745 88.9834 190.844 89.0663 190.928C89.1492 191.011 89.2478 191.078 89.3564 191.123C89.465 191.169 89.5815 191.193 89.6992 191.193H101.655C101.891 191.188 102.116 191.09 102.282 190.921C102.447 190.752 102.54 190.525 102.54 190.288C102.54 190.051 102.447 189.824 102.282 189.655C102.116 189.486 101.891 189.388 101.655 189.383H89.6992C89.4606 189.386 89.2327 189.483 89.0655 189.654C88.8983 189.824 88.8052 190.053 88.8067 190.292Z" fill="#333337"/>
<path d="M88.8067 193.683C88.8052 193.922 88.8983 194.152 89.0655 194.322C89.2327 194.492 89.4606 194.589 89.6992 194.592H101.655C101.891 194.587 102.116 194.489 102.281 194.32C102.446 194.151 102.539 193.924 102.539 193.687C102.539 193.451 102.446 193.224 102.281 193.055C102.116 192.886 101.891 192.788 101.655 192.782H89.6992C89.5815 192.783 89.465 192.806 89.3564 192.852C89.2478 192.898 89.1492 192.964 89.0663 193.048C88.9834 193.131 88.9178 193.231 88.8733 193.34C88.8287 193.449 88.8061 193.565 88.8067 193.683Z" fill="#333337"/>
<path d="M92.5014 219.953H88.2055C86.903 219.953 85.8472 221.009 85.8472 222.312C85.8472 223.615 86.903 224.671 88.2055 224.671H92.5014C93.8039 224.671 94.8598 223.615 94.8598 222.312C94.8598 221.009 93.8039 219.953 92.5014 219.953Z" fill="#B5B5B5"/>
<path d="M141.634 219.953H137.338C136.036 219.953 134.98 221.009 134.98 222.312C134.98 223.615 136.036 224.671 137.338 224.671H141.634C142.937 224.671 143.993 223.615 143.993 222.312C143.993 221.009 142.937 219.953 141.634 219.953Z" fill="#B5B5B5"/>
<path d="M155.555 219.953H151.259C149.956 219.953 148.9 221.009 148.9 222.312C148.9 223.615 149.956 224.671 151.259 224.671H155.555C156.857 224.671 157.913 223.615 157.913 222.312C157.913 221.009 156.857 219.953 155.555 219.953Z" fill="#B5B5B5"/>
<path d="M128.27 219.56H101.57C100.267 219.56 99.2114 220.616 99.2114 221.919C99.2114 223.221 100.267 224.278 101.57 224.278H128.27C129.572 224.278 130.628 223.221 130.628 221.919C130.628 220.616 129.572 219.56 128.27 219.56Z" fill="#B5B5B5"/>
<path d="M193.78 219.56H167.08C165.777 219.56 164.721 220.616 164.721 221.919C164.721 223.221 165.777 224.278 167.08 224.278H193.78C195.082 224.278 196.138 223.221 196.138 221.919C196.138 220.616 195.082 219.56 193.78 219.56Z" fill="#B5B5B5"/>
<path d="M105.603 230.601H101.308C100.005 230.601 98.9492 231.657 98.9492 232.96C98.9492 234.263 100.005 235.319 101.308 235.319H105.603C106.906 235.319 107.962 234.263 107.962 232.96C107.962 231.657 106.906 230.601 105.603 230.601Z" fill="#B5B5B5"/>
<path d="M154.736 230.601H150.44C149.137 230.601 148.082 231.657 148.082 232.96C148.082 234.263 149.137 235.319 150.44 235.319H154.736C156.038 235.319 157.094 234.263 157.094 232.96C157.094 231.657 156.038 230.601 154.736 230.601Z" fill="#B5B5B5"/>
<path d="M168.657 230.601H164.361C163.058 230.601 162.002 231.657 162.002 232.96C162.002 234.263 163.058 235.319 164.361 235.319H168.657C169.959 235.319 171.015 234.263 171.015 232.96C171.015 231.657 169.959 230.601 168.657 230.601Z" fill="#B5B5B5"/>
<path d="M141.372 230.208H114.672C113.369 230.208 112.313 231.264 112.313 232.567C112.313 233.869 113.369 234.925 114.672 234.925H141.372C142.674 234.925 143.73 233.869 143.73 232.567C143.73 231.264 142.674 230.208 141.372 230.208Z" fill="#B5B5B5"/>
<path d="M206.882 230.208H180.182C178.879 230.208 177.823 231.264 177.823 232.567C177.823 233.869 178.879 234.925 180.182 234.925H206.882C208.184 234.925 209.24 233.869 209.24 232.567C209.24 231.264 208.184 230.208 206.882 230.208Z" fill="#B5B5B5"/>
<path d="M118.706 241.249H114.41C113.107 241.249 112.051 242.305 112.051 243.608C112.051 244.91 113.107 245.967 114.41 245.967H118.706C120.008 245.967 121.064 244.91 121.064 243.608C121.064 242.305 120.008 241.249 118.706 241.249Z" fill="#B5B5B5"/>
<path d="M167.838 241.249H163.542C162.239 241.249 161.184 242.305 161.184 243.608C161.184 244.91 162.239 245.967 163.542 245.967H167.838C169.14 245.967 170.196 244.91 170.196 243.608C170.196 242.305 169.14 241.249 167.838 241.249Z" fill="#B5B5B5"/>
<path d="M181.759 241.249H177.463C176.16 241.249 175.104 242.305 175.104 243.608C175.104 244.91 176.16 245.967 177.463 245.967H181.759C183.061 245.967 184.117 244.91 184.117 243.608C184.117 242.305 183.061 241.249 181.759 241.249Z" fill="#B5B5B5"/>
<path d="M154.474 240.855H127.774C126.471 240.855 125.416 241.912 125.416 243.214C125.416 244.517 126.471 245.573 127.774 245.573H154.474C155.776 245.573 156.832 244.517 156.832 243.214C156.832 241.912 155.776 240.855 154.474 240.855Z" fill="#B5B5B5"/>
<path d="M219.984 240.855H193.284C191.981 240.855 190.925 241.912 190.925 243.214C190.925 244.517 191.981 245.573 193.284 245.573H219.984C221.286 245.573 222.342 244.517 222.342 243.214C222.342 241.912 221.286 240.855 219.984 240.855Z" fill="#B5B5B5"/>
<path d="M131.808 251.896H127.512C126.209 251.896 125.153 252.953 125.153 254.255C125.153 255.558 126.209 256.614 127.512 256.614H131.808C133.11 256.614 134.166 255.558 134.166 254.255C134.166 252.953 133.11 251.896 131.808 251.896Z" fill="#B5B5B5"/>
<path d="M180.94 251.896H176.644C175.342 251.896 174.286 252.953 174.286 254.255C174.286 255.558 175.342 256.614 176.644 256.614H180.94C182.242 256.614 183.298 255.558 183.298 254.255C183.298 252.953 182.242 251.896 180.94 251.896Z" fill="#B5B5B5"/>
<path d="M194.861 251.896H190.565C189.262 251.896 188.207 252.953 188.207 254.255C188.207 255.558 189.262 256.614 190.565 256.614H194.861C196.163 256.614 197.219 255.558 197.219 254.255C197.219 252.953 196.163 251.896 194.861 251.896Z" fill="#B5B5B5"/>
<path d="M167.576 251.503H140.876C139.573 251.503 138.518 252.559 138.518 253.862C138.518 255.165 139.573 256.221 140.876 256.221H167.576C168.878 256.221 169.934 255.165 169.934 253.862C169.934 252.559 168.878 251.503 167.576 251.503Z" fill="#B5B5B5"/>
<path d="M141.634 294.237H137.338C136.036 294.237 134.98 295.293 134.98 296.596C134.98 297.898 136.036 298.955 137.338 298.955H141.634C142.937 298.955 143.993 297.898 143.993 296.596C143.993 295.293 142.937 294.237 141.634 294.237Z" fill="#B5B5B5"/>
<path d="M155.555 294.237H151.259C149.956 294.237 148.9 295.293 148.9 296.596C148.9 297.898 149.956 298.955 151.259 298.955H155.555C156.857 298.955 157.913 297.898 157.913 296.596C157.913 295.293 156.857 294.237 155.555 294.237Z" fill="#B5B5B5"/>
<path d="M193.78 294.63H167.08C165.777 294.63 164.721 295.686 164.721 296.989C164.721 298.292 165.777 299.348 167.08 299.348H193.78C195.082 299.348 196.138 298.292 196.138 296.989C196.138 295.686 195.082 294.63 193.78 294.63Z" fill="#B5B5B5"/>
<path d="M92.5014 294.237H88.2055C86.903 294.237 85.8472 295.293 85.8472 296.596C85.8472 297.898 86.903 298.955 88.2055 298.955H92.5014C93.8039 298.955 94.8598 297.898 94.8598 296.596C94.8598 295.293 93.8039 294.237 92.5014 294.237Z" fill="#B5B5B5"/>
<path d="M128.27 294.63H101.57C100.267 294.63 99.2114 295.686 99.2114 296.989C99.2114 298.292 100.267 299.348 101.57 299.348H128.27C129.572 299.348 130.628 298.292 130.628 296.989C130.628 295.686 129.572 294.63 128.27 294.63Z" fill="#B5B5B5"/>
<path d="M105.603 283.589H101.308C100.005 283.589 98.9492 284.645 98.9492 285.948C98.9492 287.251 100.005 288.307 101.308 288.307H105.603C106.906 288.307 107.962 287.251 107.962 285.948C107.962 284.645 106.906 283.589 105.603 283.589Z" fill="#B5B5B5"/>
<path d="M154.736 283.589H150.44C149.137 283.589 148.082 284.645 148.082 285.948C148.082 287.251 149.137 288.307 150.44 288.307H154.736C156.038 288.307 157.094 287.251 157.094 285.948C157.094 284.645 156.038 283.589 154.736 283.589Z" fill="#B5B5B5"/>
<path d="M168.657 283.589H164.361C163.058 283.589 162.002 284.645 162.002 285.948C162.002 287.251 163.058 288.307 164.361 288.307H168.657C169.959 288.307 171.015 287.251 171.015 285.948C171.015 284.645 169.959 283.589 168.657 283.589Z" fill="#B5B5B5"/>
<path d="M141.372 283.982H114.672C113.369 283.982 112.313 285.038 112.313 286.341C112.313 287.644 113.369 288.7 114.672 288.7H141.372C142.674 288.7 143.73 287.644 143.73 286.341C143.73 285.038 142.674 283.982 141.372 283.982Z" fill="#B5B5B5"/>
<path d="M118.706 272.941H114.41C113.107 272.941 112.051 273.997 112.051 275.3C112.051 276.603 113.107 277.659 114.41 277.659H118.706C120.008 277.659 121.064 276.603 121.064 275.3C121.064 273.997 120.008 272.941 118.706 272.941Z" fill="#B5B5B5"/>
<path d="M167.838 272.941H163.542C162.239 272.941 161.184 273.997 161.184 275.3C161.184 276.603 162.239 277.659 163.542 277.659H167.838C169.14 277.659 170.196 276.603 170.196 275.3C170.196 273.997 169.14 272.941 167.838 272.941Z" fill="#B5B5B5"/>
<path d="M181.759 272.941H177.463C176.16 272.941 175.104 273.997 175.104 275.3C175.104 276.603 176.16 277.659 177.463 277.659H181.759C183.061 277.659 184.117 276.603 184.117 275.3C184.117 273.997 183.061 272.941 181.759 272.941Z" fill="#B5B5B5"/>
<path d="M154.474 273.334H127.774C126.471 273.334 125.416 274.391 125.416 275.693C125.416 276.996 126.471 278.052 127.774 278.052H154.474C155.776 278.052 156.832 276.996 156.832 275.693C156.832 274.391 155.776 273.334 154.474 273.334Z" fill="#B5B5B5"/>
<path d="M131.808 262.293H127.512C126.209 262.293 125.153 263.35 125.153 264.652C125.153 265.955 126.209 267.011 127.512 267.011H131.808C133.11 267.011 134.166 265.955 134.166 264.652C134.166 263.35 133.11 262.293 131.808 262.293Z" fill="#B5B5B5"/>
<path d="M180.94 262.293H176.644C175.342 262.293 174.286 263.35 174.286 264.652C174.286 265.955 175.342 267.011 176.644 267.011H180.94C182.242 267.011 183.298 265.955 183.298 264.652C183.298 263.35 182.242 262.293 180.94 262.293Z" fill="#B5B5B5"/>
<path d="M194.861 262.293H190.565C189.262 262.293 188.207 263.35 188.207 264.652C188.207 265.955 189.262 267.011 190.565 267.011H194.861C196.163 267.011 197.219 265.955 197.219 264.652C197.219 263.35 196.163 262.293 194.861 262.293Z" fill="#B5B5B5"/>
<path d="M167.576 262.687H140.876C139.573 262.687 138.518 263.743 138.518 265.045C138.518 266.348 139.573 267.404 140.876 267.404H167.576C168.878 267.404 169.934 266.348 169.934 265.045C169.934 263.743 168.878 262.687 167.576 262.687Z" fill="#B5B5B5"/>
<path d="M77.0562 448.059C77.5557 448.313 78.0634 448.567 78.5629 448.812C91.5011 455.283 101.852 458.961 116.01 462.99C117.206 449.64 118.36 426.174 119.482 411.627C119.777 407.851 120.072 404.681 120.358 402.445C120.43 401.257 120.673 400.084 121.079 398.964L121.03 402.445L120.907 411.627L120.194 464.137C137.806 468.798 155.898 471.406 174.109 471.91C175.059 471.935 175.992 471.951 176.893 471.967C177.213 471.975 177.524 471.984 177.835 471.984C178.858 471.992 179.874 472 180.897 472C200.089 472.014 219.21 469.696 237.842 465.095C237.441 451.884 237.039 428.68 236.655 411.627C236.573 408.293 236.499 405.189 236.417 402.445C236.262 396.581 236.098 392.355 235.942 390.938C236.08 391.189 236.187 391.455 236.262 391.732C237.02 395.264 237.537 398.843 237.809 402.445C238.096 405.189 238.382 408.293 238.669 411.627C240.192 429.343 241.781 453.432 243.418 463.646C253.167 460.984 262.732 457.692 272.054 453.792C276.968 451.745 281.794 449.536 286.532 447.166C285.631 441.269 284.69 434.659 283.723 427.803C282.97 422.488 282.192 417.025 281.398 411.627C280.169 403.289 261.917 345.021 260.762 342.81C259.771 340.918 258.83 339.132 257.937 337.486C255.775 333.489 253.941 330.303 252.582 328.288C246.899 319.665 238.438 313.246 228.605 310.096L228.359 310.031L228.187 310.105L211.441 304.961L208.993 304.207L207.347 303.699L201.55 299.285L198.397 296.885L195.441 294.632L189.659 290.234L153.867 292.437L146.898 309.22L131.29 314.929L131.02 314.806L130.783 314.708L130.537 314.773C120.705 317.926 112.246 324.344 106.56 332.965C105.791 334.119 104.857 335.643 103.801 337.486C102.9 339.05 101.917 340.836 100.853 342.81C99.3378 345.619 97.6837 348.789 95.9313 352.221C95.5464 352.974 95.1533 353.744 94.7603 354.522C94.0315 355.964 93.2918 357.435 92.5411 358.937C90.7969 362.418 88.9954 366.055 87.1939 369.748C85.6298 372.951 84.0494 379.536 82.4936 387.915C81.2079 394.877 79.9305 403.084 78.694 411.627C77.0726 422.701 78.8004 435.961 77.3346 446.15C77.2445 446.798 77.1462 447.428 77.0562 448.059Z" fill="#333337"/>
<path opacity="0.2" d="M248.602 387.879L241.644 361.021L235.5 384.197L248.602 387.879Z" fill="#282828"/>
<path d="M63.4463 370.379C65.9357 404.681 63.3562 419.785 77.0969 448.067C89.599 454.188 102.621 459.182 116.01 462.99C117.402 463.384 118.797 463.766 120.194 464.137C137.806 468.798 155.898 471.406 174.109 471.91C175.059 471.935 175.992 471.951 176.893 471.967C177.212 471.975 177.524 471.984 177.835 471.984C178.858 471.992 179.874 472 180.897 472C200.088 472.014 219.21 469.696 237.842 465.095C239.709 464.637 241.568 464.153 243.418 463.646C253.166 460.984 262.732 457.692 272.054 453.792C276.968 451.745 281.793 449.536 286.532 447.166C287.605 446.625 288.677 446.085 289.734 445.528C295.163 435.978 298.25 424.363 298.316 410.407C294.557 386.359 71.7497 349.641 63.4463 370.379Z" fill="#282828"/>
<path opacity="0.2" d="M63.4527 376.254C63.3255 374.13 63.1834 371.936 63.0176 369.652C71.321 348.914 294.128 385.632 297.887 409.68C297.877 411.884 297.782 414.024 297.624 416.113C288.521 392.378 76.8516 357.479 63.4527 376.254Z" fill="#282828"/>
<path d="M12.9624 387.568C13.3232 388.619 14.0076 389.528 14.9172 390.165C15.8269 390.803 16.9151 391.135 18.0256 391.115L39.7191 390.557C40.8377 390.535 41.9192 390.152 42.802 389.464C43.6847 388.777 44.3213 387.822 44.6166 386.743L47.6865 353.909C48.7756 354.402 49.9613 354.646 51.1568 354.622C53.2534 354.568 55.2428 353.683 56.6876 352.163C58.1325 350.642 58.9145 348.61 58.8619 346.513C58.8093 344.416 57.9263 342.425 56.407 340.979C54.8877 339.533 52.8564 338.749 50.7597 338.8C50.2819 338.799 49.8053 338.848 49.338 338.948C48.8298 338.398 48.2121 337.961 47.5247 337.664C46.8373 337.368 46.0954 337.218 45.3468 337.226L11.9772 338.088C11.7004 338.098 11.425 338.132 11.1541 338.19C10.4223 338.326 9.72825 338.618 9.1186 339.045C8.50895 339.473 7.99788 340.025 7.61979 340.667C7.24169 341.308 7.00535 342.023 6.92666 342.764C6.84797 343.504 6.92876 344.253 7.16361 344.959L12.9624 387.568ZM48.316 351.679L50.5005 343.855C50.749 342.951 50.7547 341.998 50.5172 341.091C50.6231 341.091 50.7166 341.04 50.8226 341.04C52.3204 341.009 53.7694 341.574 54.8518 342.61C55.9343 343.646 56.5618 345.069 56.5969 346.567C56.632 348.065 56.0717 349.516 55.0389 350.601C54.0062 351.687 52.5852 352.318 51.0876 352.357C50.1193 352.388 49.1611 352.153 48.316 351.679Z" fill="#282828"/>
<path d="M11.1538 338.19C11.8647 342.256 19.8577 345.114 29.4686 344.617C38.3065 344.21 45.5328 341.106 46.8567 337.427C46.3668 337.282 45.8573 337.214 45.3464 337.226L11.9769 338.087C11.7001 338.098 11.4247 338.132 11.1538 338.19Z" fill="#333337"/>
<path d="M31.23 369.525C31.2739 369.514 31.3157 369.496 31.3535 369.471L36.0646 366.387C36.1216 366.35 36.1684 366.299 36.2008 366.239C36.2332 366.179 36.2502 366.112 36.2502 366.044C36.2502 365.976 36.2333 365.909 36.2009 365.85C36.1686 365.79 36.1218 365.739 36.0649 365.702L31.1682 362.494C31.1233 362.464 31.0729 362.443 31.02 362.433C30.9671 362.423 30.9127 362.423 30.8599 362.434C30.8071 362.445 30.757 362.466 30.7125 362.497C30.6679 362.527 30.6297 362.566 30.6002 362.611C30.5706 362.656 30.5503 362.706 30.5403 362.759C30.5303 362.812 30.5309 362.867 30.542 362.919C30.5531 362.972 30.5744 363.022 30.6049 363.067C30.6354 363.111 30.6744 363.149 30.7195 363.178L35.0931 366.044L30.9054 368.786C30.8243 368.839 30.7646 368.919 30.737 369.012C30.7094 369.105 30.7156 369.204 30.7546 369.293C30.7935 369.382 30.8626 369.454 30.9497 369.496C31.0367 369.539 31.1361 369.549 31.23 369.525Z" fill="#57A745"/>
<path d="M23.7893 369.869C23.8684 369.849 23.9397 369.805 23.9941 369.745C24.0484 369.684 24.0834 369.608 24.0945 369.527C24.1056 369.446 24.0923 369.364 24.0563 369.291C24.0203 369.218 23.9633 369.157 23.8926 369.116L19.5501 366.626L23.7473 363.508C23.7904 363.476 23.8268 363.435 23.8544 363.389C23.8819 363.343 23.9002 363.292 23.908 363.239C23.9159 363.186 23.9131 363.132 23.9 363.079C23.8869 363.027 23.8637 362.978 23.8316 362.935C23.7996 362.892 23.7594 362.856 23.7133 362.828C23.6672 362.8 23.6161 362.782 23.5629 362.774C23.5097 362.767 23.4556 362.769 23.4035 362.782C23.3514 362.795 23.3024 362.819 23.2592 362.851L18.56 366.342C18.5054 366.383 18.4617 366.436 18.433 366.498C18.4042 366.559 18.3912 366.627 18.3952 366.695C18.3992 366.763 18.4201 366.829 18.4559 366.886C18.4917 366.944 18.5413 366.992 18.6003 367.026L23.4851 369.827C23.5772 369.88 23.6863 369.895 23.7893 369.869Z" fill="#57A745"/>
<path d="M30.7617 372.228C30.8013 372.218 30.8392 372.202 30.8739 372.181C30.9199 372.153 30.9599 372.116 30.9917 372.073C31.0235 372.029 31.0464 371.98 31.0591 371.928C31.0719 371.876 31.0742 371.821 31.0659 371.768C31.0577 371.715 31.039 371.664 31.011 371.618L24.3327 360.636C24.276 360.544 24.185 360.478 24.0796 360.452C23.9743 360.427 23.8632 360.444 23.7707 360.501C23.6782 360.557 23.6118 360.648 23.586 360.753C23.5602 360.858 23.5771 360.969 23.6331 361.062L30.3114 372.045C30.357 372.119 30.4253 372.177 30.5063 372.21C30.5873 372.244 30.6768 372.25 30.7617 372.228Z" fill="#57A745"/>
<path d="M549.471 326.138H476.591V390.025H549.471V326.138Z" fill="#333337"/>
<path d="M560.273 236.901C558.922 244.911 560.109 253.142 563.667 260.443C564.984 263.129 566.615 266.364 565.011 268.888C564.561 269.519 563.976 270.042 563.298 270.418C562.62 270.793 561.867 271.013 561.094 271.06C559.546 271.142 557.997 270.941 556.521 270.468" fill="#8C8989"/>
<path d="M496.244 212.289C497.601 212.289 498.701 211.372 498.701 210.241C498.701 209.11 497.601 208.193 496.244 208.193C494.887 208.193 493.788 209.11 493.788 210.241C493.788 211.372 494.887 212.289 496.244 212.289Z" fill="#333337"/>
<path d="M505.252 213.108C506.609 213.108 507.709 212.191 507.709 211.06C507.709 209.929 506.609 209.012 505.252 209.012C503.895 209.012 502.795 209.929 502.795 211.06C502.795 212.191 503.895 213.108 505.252 213.108Z" fill="#333337"/>
<path d="M514.259 217.203C515.616 217.203 516.716 216.286 516.716 215.155C516.716 214.024 515.616 213.108 514.259 213.108C512.903 213.108 511.803 214.024 511.803 215.155C511.803 216.286 512.903 217.203 514.259 217.203Z" fill="#333337"/>
<path d="M524.905 214.746C526.262 214.746 527.361 213.829 527.361 212.698C527.361 211.567 526.262 210.65 524.905 210.65C523.548 210.65 522.448 211.567 522.448 212.698C522.448 213.829 523.548 214.746 524.905 214.746Z" fill="#333337"/>
<path d="M301.291 253.555C313.222 250.242 326.512 253.793 335.732 261.926C340.706 266.345 344.357 272.057 346.278 278.429C348.632 286.012 349.021 294.012 349.268 301.894C349.54 310.611 349.777 319.328 350.031 328.045C350.273 336.356 350.301 344.706 350.856 353.003C351.321 359.966 352.435 367.194 356.16 373.232C359.614 378.831 365.071 382.611 371.237 384.695C377.488 386.807 384.225 387.298 390.782 387.255C398.412 387.231 406.03 386.628 413.569 385.451C427.889 383.156 442.033 377.304 450.779 365.229C454.805 359.746 457.068 353.168 457.266 346.368C457.451 338.443 454.919 330.768 452.147 323.449C449.449 316.326 446.531 309.309 444.823 301.862C443.237 294.893 442.481 287.76 442.571 280.613C442.718 266.315 446.144 252.241 452.586 239.476C455.846 232.92 459.982 226.838 464.88 221.395C469.931 215.898 476.186 211.36 483.624 209.872C487.254 209.12 491.013 209.271 494.57 210.312C496.088 210.767 496.737 208.396 495.223 207.943C487.855 205.736 479.85 207.414 473.317 211.244C466.894 215.01 461.818 220.66 457.51 226.65C449.232 238.395 443.722 251.862 441.392 266.041C439.062 280.22 439.973 294.743 444.057 308.52C448.428 322.844 457.937 337.755 453.852 353.257C450.276 366.827 437.891 376.048 425.096 380.213C417.333 382.741 409.195 383.81 401.077 384.363C394.217 384.83 387.263 385.127 380.423 384.246C374.14 383.436 367.678 381.515 362.806 377.296C357.467 372.672 355.026 366.028 353.964 359.209C352.762 351.494 352.939 343.538 352.712 335.753L351.938 309.18C351.501 294.172 351.878 277.539 342.115 265.103C338.212 260.257 333.256 256.366 327.623 253.725C321.99 251.083 315.829 249.762 309.609 249.861C306.575 249.93 303.562 250.375 300.638 251.186C300.334 251.281 300.079 251.491 299.926 251.771C299.774 252.051 299.736 252.379 299.821 252.686C299.905 252.993 300.106 253.256 300.38 253.418C300.655 253.58 300.981 253.629 301.291 253.555Z" fill="#333337"/>
<path d="M126.898 238.011C128.637 250.387 135.217 261.566 145.192 269.093C155.167 276.619 167.721 279.877 180.096 278.15C192.471 276.423 203.655 269.853 211.189 259.883C218.724 249.913 221.994 237.359 220.28 224.98L220.186 224.311C218.192 212.098 211.478 201.159 201.493 193.853C191.508 186.547 179.052 183.46 166.811 185.257C154.571 187.055 143.527 193.593 136.063 203.462C128.599 213.33 125.312 225.738 126.912 238.009L126.898 238.011Z" fill="#FFB6B6"/>
<path d="M168.457 277.001C166.02 272.091 163.515 266.818 164.177 261.375C164.839 255.933 170.156 250.715 175.399 252.314C178.534 253.271 180.912 256.356 184.186 256.503C188.692 256.706 191.257 251.541 192.645 247.249L198.297 229.768C209.199 238.334 195.392 229.354 208.897 226.218C214.195 224.987 219.543 222.605 222.638 218.132C225.734 213.659 225.692 206.736 221.415 203.376C219.317 201.728 216.531 201.109 214.526 199.349C213.283 198.258 212.423 196.796 212.075 195.178C211.727 193.56 211.909 191.873 212.594 190.367C213.279 188.861 214.431 187.615 215.878 186.814C217.326 186.014 218.993 185.7 220.633 185.921L206.248 184.171L210.506 176.407C207.428 178.851 203.133 179.193 199.262 178.509C195.391 177.826 191.742 176.245 187.954 175.195C169.769 170.155 148.684 179.094 139.659 195.67C136.117 194.5 132.303 194.434 128.722 195.481C125.142 196.528 121.964 198.639 119.61 201.533C115.777 206.433 114.752 212.957 114.624 219.177C114.385 231.44 117.099 243.581 122.536 254.575C124.231 257.992 126.234 261.344 129.115 263.843C131.995 266.342 164.548 280.187 168.305 279.534" fill="#282828"/>
<path d="M508.528 244.642C508.534 246.768 508.262 248.885 507.717 250.94V250.948C507.709 250.989 507.692 251.03 507.684 251.071C506.03 257.157 502.083 261.432 497.473 261.432C492.887 261.432 488.956 257.19 487.278 251.153C487.163 250.735 487.065 250.318 486.975 249.884C486.86 249.4 486.77 248.901 486.696 248.385C486.631 247.975 486.582 247.557 486.541 247.132C486.483 246.542 486.443 245.952 486.434 245.338V245.33C486.418 245.1 486.418 244.871 486.418 244.642V244.437L486.426 244.429C486.427 243.391 486.496 242.354 486.631 241.324C486.688 240.89 486.754 240.473 486.836 240.055C486.934 239.547 487.04 239.047 487.171 238.556C487.278 238.122 487.401 237.704 487.532 237.286C487.712 236.729 487.908 236.189 488.129 235.673C488.269 235.337 488.416 235.009 488.563 234.69C490.578 230.546 493.821 227.851 497.473 227.851C502.525 227.851 506.783 233.003 508.102 240.03C508.118 240.137 508.143 240.243 508.151 240.35V240.358C508.403 241.772 508.529 243.205 508.528 244.642Z" fill="#B5B5B5"/>
<path d="M488.67 235.05C488.665 235.2 488.609 235.344 488.51 235.458C488.412 235.571 488.277 235.647 488.129 235.673C488.269 235.337 488.416 235.009 488.563 234.69C488.632 234.798 488.669 234.923 488.67 235.05Z" fill="#57A745"/>
<path d="M498.351 234.304H491.145C490.794 234.304 490.509 234.589 490.509 234.941C490.509 235.292 490.794 235.577 491.145 235.577H498.351C498.703 235.577 498.988 235.292 498.988 234.941C498.988 234.589 498.703 234.304 498.351 234.304Z" fill="#57A745"/>
<path d="M488.448 237.917C488.448 238.086 488.381 238.249 488.261 238.369C488.141 238.488 487.979 238.556 487.81 238.556H487.171C487.277 238.122 487.4 237.704 487.531 237.286H487.81C487.978 237.286 488.139 237.352 488.259 237.47C488.378 237.588 488.446 237.749 488.448 237.917Z" fill="#57A745"/>
<path d="M491.571 237.284H490.411C490.06 237.284 489.775 237.569 489.775 237.921C489.775 238.272 490.06 238.557 490.411 238.557H491.571C491.922 238.557 492.207 238.272 492.207 237.921C492.207 237.569 491.922 237.284 491.571 237.284Z" fill="#57A745"/>
<path d="M501.887 237.178H494.681C494.33 237.178 494.045 237.463 494.045 237.815C494.045 238.166 494.33 238.451 494.681 238.451H501.887C502.239 238.451 502.524 238.166 502.524 237.815C502.524 237.463 502.239 237.178 501.887 237.178Z" fill="#57A745"/>
<path d="M491.35 240.158H490.19C489.839 240.158 489.554 240.443 489.554 240.795C489.554 241.146 489.839 241.431 490.19 241.431H491.35C491.701 241.431 491.986 241.146 491.986 240.795C491.986 240.443 491.701 240.158 491.35 240.158Z" fill="#57A745"/>
<path d="M495.107 240.158H493.948C493.596 240.158 493.311 240.443 493.311 240.795C493.311 241.146 493.596 241.431 493.948 241.431H495.107C495.458 241.431 495.743 241.146 495.743 240.795C495.743 240.443 495.458 240.158 495.107 240.158Z" fill="#57A745"/>
<path d="M488.383 240.685C488.383 240.855 488.316 241.017 488.196 241.137C488.076 241.257 487.914 241.324 487.745 241.324H486.631C486.688 240.89 486.754 240.472 486.836 240.055H487.745C487.828 240.054 487.911 240.07 487.988 240.101C488.065 240.132 488.136 240.179 488.195 240.237C488.254 240.296 488.302 240.366 488.334 240.442C488.366 240.519 488.383 240.602 488.383 240.685Z" fill="#57A745"/>
<path d="M505.424 240.052H498.218C497.866 240.052 497.581 240.337 497.581 240.688C497.581 241.04 497.866 241.325 498.218 241.325H505.424C505.775 241.325 506.06 241.04 506.06 240.688C506.06 240.337 505.775 240.052 505.424 240.052Z" fill="#57A745"/>
<path d="M488.67 244.879C488.67 244.963 488.653 245.045 488.621 245.122C488.588 245.199 488.541 245.269 488.482 245.327C488.422 245.386 488.352 245.432 488.275 245.464C488.197 245.495 488.115 245.511 488.031 245.51H486.877C486.713 245.51 486.555 245.449 486.434 245.338V245.33C486.418 245.1 486.418 244.871 486.418 244.642V244.437L486.426 244.429C486.485 244.369 486.555 244.321 486.632 244.289C486.71 244.257 486.793 244.24 486.877 244.24H488.031C488.201 244.24 488.363 244.308 488.483 244.428C488.602 244.547 488.67 244.71 488.67 244.879Z" fill="#8C8989"/>
<path d="M498.351 244.133H491.145C490.794 244.133 490.509 244.418 490.509 244.77C490.509 245.121 490.794 245.406 491.145 245.406H498.351C498.703 245.406 498.988 245.121 498.988 244.77C498.988 244.418 498.703 244.133 498.351 244.133Z" fill="#8C8989"/>
<path d="M488.448 247.746C488.448 247.915 488.381 248.078 488.261 248.197C488.141 248.317 487.979 248.384 487.81 248.385H486.696C486.631 247.975 486.581 247.557 486.541 247.132C486.577 247.118 486.616 247.113 486.655 247.115H487.81C487.978 247.115 488.139 247.181 488.259 247.299C488.378 247.417 488.447 247.578 488.448 247.746Z" fill="#8C8989"/>
<path d="M491.571 247.113H490.411C490.06 247.113 489.775 247.398 489.775 247.749C489.775 248.101 490.06 248.386 490.411 248.386H491.571C491.922 248.386 492.207 248.101 492.207 247.749C492.207 247.398 491.922 247.113 491.571 247.113Z" fill="#8C8989"/>
<path d="M501.887 247.007H494.681C494.33 247.007 494.045 247.292 494.045 247.643C494.045 247.995 494.33 248.28 494.681 248.28H501.887C502.239 248.28 502.524 247.995 502.524 247.643C502.524 247.292 502.239 247.007 501.887 247.007Z" fill="#8C8989"/>
<path d="M491.35 249.987H490.19C489.839 249.987 489.554 250.272 489.554 250.623C489.554 250.975 489.839 251.26 490.19 251.26H491.35C491.701 251.26 491.986 250.975 491.986 250.623C491.986 250.272 491.701 249.987 491.35 249.987Z" fill="#8C8989"/>
<path d="M495.107 249.987H493.948C493.596 249.987 493.311 250.272 493.311 250.623C493.311 250.975 493.596 251.26 493.948 251.26H495.107C495.458 251.26 495.743 250.975 495.743 250.623C495.743 250.272 495.458 249.987 495.107 249.987Z" fill="#8C8989"/>
<path d="M488.383 250.514C488.383 250.684 488.315 250.846 488.196 250.966C488.076 251.086 487.914 251.153 487.744 251.153H487.278C487.163 250.735 487.065 250.318 486.975 249.884H487.744C487.828 249.883 487.91 249.898 487.988 249.93C488.065 249.961 488.136 250.007 488.195 250.066C488.254 250.125 488.301 250.194 488.334 250.271C488.366 250.348 488.383 250.431 488.383 250.514Z" fill="#8C8989"/>
<path d="M505.424 249.88H498.218C497.866 249.88 497.581 250.165 497.581 250.517C497.581 250.869 497.866 251.154 498.218 251.154H505.424C505.775 251.154 506.06 250.869 506.06 250.517C506.06 250.165 505.775 249.88 505.424 249.88Z" fill="#8C8989"/>
</g>
<defs>
<clipPath id="clip0_214_137">
<rect width="605" height="472" fill="white"/>
</clipPath>
</defs>
</svg>
